<svg width="44" height="44" viewBox="0 0 44 44" fill="none" xmlns="http://www.w3.org/2000/svg">
<path d="M36.6995 30.1997C36.1314 31.512 35.459 32.72 34.68 33.8306C33.6181 35.3447 32.7486 36.3927 32.0785 36.9747C31.0397 37.93 29.9268 38.4192 28.735 38.447C27.8795 38.447 26.8477 38.2036 25.6466 37.7097C24.4416 37.2181 23.3343 36.9747 22.3217 36.9747C21.2598 36.9747 20.1209 37.2181 18.9027 37.7097C17.6826 38.2036 16.6997 38.4609 15.9483 38.4864C14.8054 38.5351 13.6663 38.032 12.5292 36.9747C11.8035 36.3417 10.8957 35.2566 9.80831 33.7193C8.64158 32.0777 7.68236 30.1742 6.93089 28.0039C6.1261 25.6598 5.72266 23.3899 5.72266 21.1923C5.72266 18.6749 6.26661 16.5038 7.35613 14.6843C8.2124 13.2229 9.35154 12.0701 10.7773 11.2238C12.203 10.3775 13.7435 9.94622 15.4025 9.91863C16.3102 9.91863 17.5006 10.1994 18.9799 10.7512C20.455 11.3049 21.4021 11.5857 21.8174 11.5857C22.1279 11.5857 23.1801 11.2574 24.9638 10.6029C26.6506 9.99584 28.0742 9.7445 29.2405 9.8435C32.4008 10.0986 34.7751 11.3444 36.354 13.5888C33.5276 15.3013 32.1295 17.6999 32.1573 20.777C32.1828 23.1738 33.0523 25.1682 34.7611 26.7519C35.5356 27.4869 36.4004 28.0549 37.3626 28.4584C37.154 29.0635 36.9337 29.6432 36.6995 30.1997V30.1997ZM29.4515 1.67822C29.4515 3.5568 28.7652 5.31082 27.3972 6.93432C25.7463 8.86435 23.7495 9.97961 21.5842 9.80362C21.5566 9.57825 21.5406 9.34106 21.5406 9.0918C21.5406 7.28838 22.3256 5.35835 23.7198 3.78029C24.4159 2.98129 25.3011 2.31694 26.3747 1.78697C27.4459 1.26491 28.4591 0.976191 29.4121 0.926758C29.4399 1.17789 29.4515 1.42904 29.4515 1.6782V1.67822Z" fill="black"/>
</svg>
